PathFileType	4	(X/Y/Z)	./resultDataOpenSim/trcMotMarkerGrf/sub06/qtm-03-07.trc
DataRate	CameraRate	NumFrames	NumMarkers	Units	OrigDataRate	OrigDataStartFrame	OrigNumFrames
250.000000	250.000000	11	24	m	250.000000	367	488
Frame#	Time	L.Toe.Tip			R.Toe.Tip			L.Ankle.Lat			R.Ankle.Lat			L.Ankle.Med			R.Ankle.Med			L.Heel			R.Heel			L.Knee.Lat			R.Knee.Lat			L.Knee.Med			R.Knee.Med			L.Thigh.Upper			R.Thigh.Upper			L.ASIS			R.ASIS			V.Sacral			L.Acromium			R.Acromium			C7			L.Elbow			R.Elbow			L.Wrist.Lat			R.Wrist.Lat
		X1	Y1	Z1	X2	Y2	Z2	X3	Y3	Z3	X4	Y4	Z4	X5	Y5	Z5	X6	Y6	Z6	X7	Y7	Z7	X8	Y8	Z8	X9	Y9	Z9	X10	Y10	Z10	X11	Y11	Z11	X12	Y12	Z12	X13	Y13	Z13	X14	Y14	Z14	X15	Y15	Z15	X16	Y16	Z16	X17	Y17	Z17	X18	Y18	Z18	X19	Y19	Z19	X20	Y20	Z20	X21	Y21	Z21	X22	Y22	Z22	X23	Y23	Z23	X24	Y24	Z24

367	1.464	1.3481779	0.081341072	-0.066777231	0.97637723	0.035724194	0.10917476	1.2288023	0.12520608	-0.077982432	0.84166958	0.070981044	0.12697775	1.2432431	0.14066989	0.0053796759	0.86960755	0.094627427	0.043156597	1.1574025	0.10064174	-0.027134401	0.7889663	0.055986301	0.064004825	1.3102303	0.49724355	-0.086025574	0.97801565	0.43826861	0.17063236	1.3063658	0.48814114	0.03442071	0.9561022	0.44074453	0.040176158	1.0940146	0.82752569	-0.10666034	1.0414971	0.80036722	0.23859657	1.1544085	0.87030724	-0.048644239	1.1448154	0.85474849	0.19658154	0.96325816	0.93445666	0.072501512	1.0800024	1.3422447	-0.10878345	1.111281	1.3357278	0.25032139	1.0203185	1.3761471	0.076953288	0.96089745	1.0537559	-0.15186462	1.100295	1.0181646	0.3401829	1.0214073	0.82746417	-0.22126944	1.3357966	0.945536	0.28533077
368	1.468	1.3673151	0.082087981	-0.066582705	0.97643727	0.035656977	0.10916294	1.2465126	0.12156832	-0.07742347	0.84188167	0.071404188	0.12677249	1.2610204	0.13739958	0.0055801363	0.8700249	0.094804945	0.042951826	1.1760006	0.094676731	-0.026861223	0.78917794	0.056612895	0.06375415	1.3166099	0.49589004	-0.085204143	0.98075517	0.43774658	0.1704127	1.3127255	0.48672714	0.035121361	0.9592347	0.44008909	0.039831023	1.1007752	0.82613836	-0.10697816	1.0464566	0.79911182	0.23815421	1.1611033	0.86888428	-0.048742872	1.1503506	0.85322345	0.19700071	0.96987188	0.93291962	0.071714821	1.085971	1.3406127	-0.10891165	1.1171407	1.3342404	0.25033518	1.0262324	1.3747975	0.076872978	0.96581479	1.0527631	-0.1516758	1.1078904	1.0167987	0.34091405	1.0243037	0.82624149	-0.22189486	1.3433363	0.94628074	0.28448902
369	1.472	1.3863262	0.083102398	-0.066290822	0.97649833	0.035608162	0.10913479	1.2642285	0.11818589	-0.07687728	0.84210551	0.071836727	0.12659372	1.2789144	0.13445065	0.0056818845	0.8704627	0.09499579	0.042750884	1.1947225	0.089004108	-0.026560997	0.78943814	0.057243507	0.063472753	1.32284	0.49438218	-0.084417624	0.98359626	0.43719311	0.17020796	1.3189975	0.4851711	0.035813685	0.9623981	0.43937986	0.039518791	1.1075603	0.82470273	-0.10728984	1.0514582	0.79783461	0.23770609	1.1677912	0.8673831	-0.048831925	1.1559034	0.85163828	0.19743795	0.97641719	0.93138568	0.070880569	1.0919607	1.3389306	-0.10905669	1.1230222	1.3326941	0.25033961	1.0321683	1.3734091	0.076787631	0.9707931	1.0517114	-0.15150563	1.1153648	1.0153297	0.34150104	1.0272934	0.82499099	-0.22250423	1.3508184	0.94692388	0.28363467
370	1.476	1.4051784	0.084393874	-0.06592535	0.97656055	0.035565017	0.10909534	1.2819296	0.11508594	-0.076352767	0.84234068	0.0722883	0.12644337	1.296552	0.13170578	0.0059493261	0.87091863	0.095200098	0.042561553	1.2135103	0.083616131	-0.026146751	0.78969692	0.057905848	0.0632414	1.3289345	0.49272301	-0.083669116	0.98653012	0.43661395	0.17001715	1.3251867	0.48347695	0.036504176	0.96560444	0.43863394	0.039239079	1.1143867	0.82322223	-0.1076037	1.0565397	0.79655665	0.23728795	1.1744583	0.86579938	-0.048898621	1.1615776	0.84999126	0.19775463	0.98285897	0.9298523	0.070038316	1.0979733	1.3372008	-0.10921336	1.1289263	1.3310966	0.25033374	1.0381265	1.3719744	0.076686941	0.97583087	1.0506017	-0.15134805	1.1226421	1.0137316	0.34187573	1.0303814	0.82371242	-0.22309713	1.3582364	0.94747415	0.28276413
371	1.48	1.4238254	0.08596453	-0.065518752	0.97662089	0.03552119	0.1090484	1.299597	0.11227737	-0.075833257	0.84259795	0.072763683	0.1263231	1.3136038	0.12905102	0.006595651	0.87137975	0.095418057	0.042392014	1.2322993	0.078523226	-0.025604225	0.78993122	0.058615706	0.0630945	1.334911	0.49091326	-0.082958818	0.98953861	0.43601257	0.16983332	1.3312986	0.4816443	0.037202934	0.96885597	0.43786832	0.038991438	1.1212352	0.82169001	-0.1079162	1.0617672	0.7952894	0.23697796	1.1811113	0.8641345	-0.048952928	1.1673917	0.84828289	0.19791153	0.98927662	0.92827567	0.069211414	1.104007	1.335429	-0.10937907	1.1348581	1.3294601	0.25031294	1.0441051	1.3704997	0.07656438	0.98092373	1.0494336	-0.15120164	1.1297701	1.0120377	0.3421057	1.0335684	0.82239805	-0.22367983	1.3655899	0.94792534	0.281893
372	1.484	1.4422237	0.087799548	-0.065076054	0.97667759	0.03547773	0.10899805	1.3171905	0.10976775	-0.075294568	0.84289974	0.073261713	0.12623481	1.3301656	0.12654869	0.0075126763	0.87182693	0.095650217	0.042246141	1.2510318	0.073769549	-0.025003668	0.79013983	0.05937574	0.063025566	1.3407832	0.48895237	-0.082277964	0.99259494	0.43539536	0.16964559	1.3373349	0.47967634	0.037918613	0.97214141	0.4371001	0.038773635	1.1280599	0.82008974	-0.10820125	1.0671858	0.79400434	0.23685333	1.1877638	0.86239913	-0.049008729	1.173299	0.84651251	0.19795503	0.99576169	0.92661306	0.068395231	1.1100576	1.3336238	-0.10955878	1.1408242	1.3277964	0.25026662	1.0500979	1.3690024	0.076420718	0.98606883	1.0482122	-0.15106873	1.1368205	1.010287	0.34227132	1.0368521	0.82103665	-0.22425846	1.3728837	0.94826559	0.2810392
373	1.488	1.4603486	0.089868739	-0.064590284	0.97673204	0.035439517	0.10895226	1.3346379	0.10757189	-0.074714428	0.84325975	0.073785875	0.12618431	1.3466057	0.12434732	0.008454081	0.87225246	0.095903928	0.042126056	1.269668	0.069408636	-0.024408312	0.7903279	0.06018665	0.063018916	1.3465639	0.48684182	-0.081612576	0.99566954	0.43477696	0.16944772	1.3432913	0.47758298	0.038656877	0.97544981	0.43634627	0.038578765	1.1348496	0.81841732	-0.10844579	1.0727365	0.79261593	0.23690198	1.1944312	0.86060496	-0.049077618	1.1792742	0.8446873	0.19793044	1.0023079	0.92488101	0.067588017	1.1161229	1.3317931	-0.10975908	1.1468237	1.3261099	0.25018564	1.0561015	1.3674869	0.076259471	0.99126546	1.0469479	-0.15095331	1.1438266	1.0084959	0.34240233	1.0402351	0.81962701	-0.22483274	1.3801216	0.94849263	0.28021671
374	1.492	1.4781953	0.09213525	-0.064072643	0.97678511	0.035408783	0.10892049	1.3518643	0.10570108	-0.074084336	0.84366528	0.074345961	0.12617805	1.3631242	0.12247707	0.0093754855	0.8726641	0.096190118	0.042036459	1.2881858	0.065467713	-0.023843638	0.79050359	0.061051591	0.063062281	1.3522721	0.48458776	-0.080950368	0.99875238	0.43416954	0.16924512	1.3491657	0.47538018	0.039424727	0.97877813	0.43562337	0.038398026	1.1416481	0.81668869	-0.10867041	1.0782931	0.79105874	0.23700933	1.2011296	0.85875752	-0.049168035	1.1853298	0.84282183	0.19785474	1.0088301	0.92314372	0.066804138	1.1222038	1.3299413	-0.10998131	1.152843	1.3243927	0.25007584	1.0621217	1.3659378	0.076079546	0.99651996	1.0456459	-0.15085891	1.1507916	1.0066696	0.34249867	1.0437248	0.81818252	-0.22539411	1.3873041	0.94861218	0.27943181
375	1.496	1.4957513	0.094561493	-0.063529595	0.97683263	0.035381567	0.10890415	1.3688223	0.10415197	-0.073417063	0.84408453	0.074942045	0.12621232	1.3796482	0.12088118	0.010369467	0.87307067	0.096509744	0.041982871	1.3065675	0.061941512	-0.023311397	0.79067947	0.061972982	0.063145485	1.3579343	0.48220554	-0.080282502	1.0018774	0.43356675	0.16905418	1.3549671	0.47308476	0.0402304	0.98212754	0.43494656	0.038225046	1.1484918	0.81492163	-0.10889682	1.0837783	0.78939983	0.23701627	1.2078738	0.85686205	-0.049279114	1.1914686	0.8409257	0.19773794	1.0152713	0.92144656	0.066047354	1.1283046	1.3280699	-0.11022522	1.1588626	1.3226369	0.24995326	1.0681684	1.3643426	0.075873852	1.0018448	1.0443018	-0.15078453	1.1577226	1.0048199	0.34256516	1.0473259	0.81671737	-0.22592993	1.394431	0.94862676	0.27868292
376	1.5	1.5129486	0.097115321	-0.062933207	0.97686809	0.03535417	0.10889398	1.3854775	0.10291139	-0.072741116	0.84449047	0.07556337	0.12627556	1.3959852	0.1195818	0.011390864	0.87348423	0.09686119	0.041969837	1.3247733	0.058806238	-0.022737805	0.79086887	0.062952118	0.063263886	1.3635818	0.47971918	-0.079600007	1.0050988	0.43295163	0.16889117	1.3607159	0.47071174	0.041082313	0.98550207	0.43432569	0.038056827	1.1553726	0.81312343	-0.1091268	1.0891877	0.78779088	0.23679128	1.2146687	0.85492728	-0.049404326	1.1976611	0.83900213	0.19759788	1.0216389	0.91979294	0.065301972	1.1344314	1.3261807	-0.11049397	1.1648684	1.320852	0.24982406	1.0742471	1.3627083	0.075634023	1.0072456	1.0429115	-0.15072768	1.1646529	1.0029763	0.34262288	1.0510428	0.81523464	-0.22643376	1.4015049	0.94853244	0.27796667
377	1.504	1.5296604	0.09977311	-0.062264547	0.97688552	0.035341584	0.10888526	1.4017726	0.10196162	-0.0720789	0.84487793	0.076208906	0.12636568	1.4119415	0.11867304	0.012263468	0.87392688	0.097255736	0.042002264	1.3427003	0.05603401	-0.021978255	0.79107954	0.06399199	0.0634219	1.3692505	0.47715665	-0.07889286	1.0084402	0.43231677	0.16876121	1.3664361	0.46827817	0.04198667	0.9889103	0.43376177	0.03789476	1.162271	0.81128879	-0.10935579	1.0945456	0.78631338	0.23629897	1.2215065	0.85295938	-0.049542821	1.2038819	0.83705652	0.19744578	1.0279574	0.91816436	0.064545168	1.1405887	1.3242796	-0.11078797	1.1708481	1.3190601	0.2496823	1.0803564	1.3610572	0.075352553	1.0127167	1.0414812	-0.15068902	1.1716495	1.001191	0.34271331	1.0548841	0.81373197	-0.22691065	1.4085305	0.94832493	0.27728369
